<svg width="24" height="24" viewBox="0 0 24 24" fill="none" xmlns="http://www.w3.org/2000/svg">
<path d="M21.8212 12.9262C21.4905 12.6729 21.1054 12.4999 20.6962 12.4209C22.1428 10.7756 22.875 9.12843 22.875 7.49999C22.875 4.81218 20.7103 2.62499 18.0506 2.62499C16.7698 2.61885 15.5384 3.11928 14.625 4.01718C13.7116 3.11928 12.4802 2.61885 11.1994 2.62499C8.53969 2.62499 6.375 4.81218 6.375 7.49999C6.375 8.45156 6.63 9.40312 7.14563 10.3781C6.73405 10.548 6.36027 10.7978 6.04594 11.1131L4.03125 13.125H1.875C1.37772 13.125 0.900806 13.3225 0.549175 13.6742C0.197544 14.0258 0 14.5027 0 15L0 18.75C0 19.2473 0.197544 19.7242 0.549175 20.0758C0.900806 20.4275 1.37772 20.625 1.875 20.625H11.25C11.342 20.625 11.4336 20.6137 11.5228 20.5912L17.5228 19.0912C17.5802 19.0772 17.6363 19.0584 17.6906 19.035L21.33 17.4844C21.3516 17.4759 21.3722 17.4666 21.3928 17.4562C21.7998 17.2526 22.1483 16.9488 22.4056 16.5733C22.6628 16.1979 22.8202 15.7631 22.863 15.31C22.9059 14.8569 22.8328 14.4004 22.6505 13.9834C22.4682 13.5664 22.1829 13.2026 21.8212 12.9262ZM11.1994 4.87499C11.7063 4.86717 12.2039 5.01072 12.6288 5.28728C13.0537 5.56384 13.3864 5.96083 13.5844 6.42749C13.6691 6.63383 13.8133 6.81031 13.9986 6.93452C14.1839 7.05872 14.4019 7.12503 14.625 7.12503C14.8481 7.12503 15.0661 7.05872 15.2514 6.93452C15.4367 6.81031 15.5809 6.63383 15.6656 6.42749C15.8636 5.96083 16.1963 5.56384 16.6212 5.28728C17.0461 5.01072 17.5437 4.86717 18.0506 4.87499C19.4456 4.87499 20.625 6.07687 20.625 7.49999C20.625 9.19312 19.2187 11.1412 16.5581 13.1428L16.125 13.2431C16.125 13.2037 16.125 13.1644 16.125 13.125C16.125 12.3293 15.8089 11.5663 15.2463 11.0037C14.6837 10.4411 13.9206 10.125 13.125 10.125H9.62906C8.94562 9.16499 8.625 8.32218 8.625 7.49999C8.625 6.07687 9.80437 4.87499 11.1994 4.87499ZM2.25 15.375H3.375V18.375H2.25V15.375ZM20.4075 15.4322L16.8909 16.9322L11.1112 18.375H5.625V14.7187L7.63687 12.7069C7.74087 12.6017 7.86468 12.5183 8.00114 12.4613C8.1376 12.4044 8.284 12.375 8.43188 12.375H13.125C13.3239 12.375 13.5147 12.454 13.6553 12.5947C13.796 12.7353 13.875 12.9261 13.875 13.125C13.875 13.3239 13.796 13.5147 13.6553 13.6553C13.5147 13.796 13.3239 13.875 13.125 13.875H10.5C10.2016 13.875 9.91548 13.9935 9.7045 14.2045C9.49353 14.4155 9.375 14.7016 9.375 15C9.375 15.2984 9.49353 15.5845 9.7045 15.7955C9.91548 16.0065 10.2016 16.125 10.5 16.125H13.5C13.5848 16.125 13.6694 16.1156 13.7522 16.0969L20.0334 14.6522L20.0775 14.6409C20.1415 14.6235 20.2087 14.6211 20.2739 14.6338C20.339 14.6465 20.4003 14.6741 20.4531 14.7144C20.5058 14.7546 20.5486 14.8065 20.5781 14.8659C20.6076 14.9254 20.623 14.9908 20.6231 15.0572C20.6236 15.1332 20.6039 15.2079 20.566 15.2738C20.5281 15.3397 20.4734 15.3944 20.4075 15.4322Z" fill="#E5E5E5"/>
</svg>
