<svg width="25" height="24" viewBox="0 0 25 24" fill="none" xmlns="http://www.w3.org/2000/svg">
<path fill-rule="evenodd" clip-rule="evenodd" d="M11.4916 12C11.3506 12.1621 11.2149 12.3193 11.0831 12.4719C10.4697 13.1826 9.94111 13.795 9.35633 14.3425C8.47274 15.1698 7.79436 15.5 7.08333 15.5C5.50064 15.5 4 14.0585 4 12C4 9.94147 5.50064 8.5 7.08333 8.5C7.79436 8.5 8.47274 8.83018 9.35633 9.65747C9.5194 9.81016 9.67811 9.96788 9.8355 10.1314C10.1336 10.441 10.6285 10.4573 10.9324 10.1534C11.2136 9.87222 11.2271 9.41854 10.9526 9.13085C9.76508 7.88614 8.59038 7 7.08333 7C4.55203 7 2.5 9.23858 2.5 12C2.5 14.7614 4.55203 17 7.08333 17C9.14958 17 10.5848 15.383 12.2912 13.4112C12.4345 13.2456 12.553 13.1038 12.6672 12.9672C12.7834 12.828 12.8952 12.6943 13.024 12.5464L13.511 12.003L13.5084 12C13.6494 11.8379 13.7851 11.6807 13.9169 11.5281C14.5303 10.8174 15.0589 10.205 15.6437 9.65747C16.5273 8.83017 17.2056 8.5 17.9167 8.5C19.4994 8.5 21 9.94147 21 12C21 14.0585 19.4994 15.5 17.9167 15.5C17.2056 15.5 16.5273 15.1698 15.6437 14.3425C15.4798 14.1891 15.3204 14.0307 15.1623 13.8664C14.8545 13.5465 14.3391 13.5416 14.0406 13.8702C13.7826 14.1542 13.7803 14.589 14.0451 14.8667C15.2334 16.1127 16.4086 17 17.9167 17C20.448 17 22.5 14.7614 22.5 12C22.5 9.23858 20.448 7 17.9167 7C15.8504 7 14.3832 8.62635 12.6768 10.5982C12.5291 10.7689 12.3718 10.9592 12.2148 11.1493C11.9636 11.4532 11.7132 11.7563 11.5039 11.9766L11.5064 11.9793L11.4896 11.9977L11.4916 12Z" fill="#D9D9D9"/>
</svg>
